<svg width="36" height="16" viewBox="0 0 36 16" fill="none" xmlns="http://www.w3.org/2000/svg">
<path d="M34.5165 7.094C34.5041 6.55521 34.3187 6.09339 33.9849 5.72137C33.6511 5.34935 33.1689 5.15693 32.5137 5.15693C32.217 5.15693 31.945 5.22107 31.7101 5.32369C31.4753 5.43915 31.2651 5.58026 31.1044 5.77268C30.3873 6.54238 30.3008 8.28703 30.6717 9.2235C30.7829 9.50572 30.9313 9.74946 31.1291 9.95471C31.3269 10.16 31.5618 10.3139 31.8338 10.4165C32.0934 10.532 32.3777 10.5833 32.6868 10.5833C33.2802 10.5833 33.7376 10.4422 34.0467 10.1471C34.1332 10.0573 34.2198 9.96754 34.2939 9.87774V11.5069C34.158 11.5839 34.0096 11.648 33.8489 11.6994C33.5027 11.8276 33.1071 11.8918 32.6868 11.8918C32.2047 11.8918 31.7349 11.802 31.2898 11.6224C30.8448 11.4428 30.4615 11.1862 30.1154 10.8399C29.7816 10.4935 29.5096 10.0702 29.3118 9.56986C29.114 9.05673 29.0151 8.49228 29.0151 7.85087C29.0151 7.24794 29.114 6.70915 29.3118 6.22167C29.4972 5.7342 29.7568 5.31087 30.0659 4.9645C30.3873 4.61814 30.7582 4.33591 31.1909 4.14349C31.6112 3.95107 32.0439 3.86127 32.5014 3.86127C33.0577 3.86127 33.5522 3.95107 33.9972 4.14349C34.4423 4.33591 34.8008 4.60531 35.0975 4.95167C35.3942 5.29804 35.6167 5.72137 35.7651 6.20885C35.9258 6.69632 36 7.23511 36 7.81238C36 7.91501 36 8.00481 36 8.08178C35.9876 8.17158 35.9876 8.23572 35.9753 8.28703H32.6621V7.094H34.5165Z" fill="#586F7E"/>
<path d="M0 7.61924L1.52061 7.27287V8.35045C1.52061 9.10732 1.69368 9.65893 2.03984 10.0053C2.39835 10.3645 2.85577 10.5313 3.41209 10.5313C3.96841 10.5313 4.4011 10.3517 4.72253 9.99247C5.04396 9.63328 5.20468 9.12015 5.20468 8.4659V0.358429H6.72528V8.35045C6.72528 8.85075 6.6511 9.3254 6.50275 9.76156C6.3544 10.1977 6.13187 10.5826 5.84753 10.9161C5.55083 11.2496 5.20468 11.519 4.79671 11.7115C4.38874 11.9039 3.93132 11.9937 3.42445 11.9937C2.89286 11.9937 2.41072 11.9167 1.97802 11.7371C1.55769 11.5703 1.19918 11.3266 0.902473 11.0059C0.618132 10.6852 0.383242 10.3003 0.23489 9.85136C0.0741759 9.40237 0 8.91489 0 8.36328V7.61924Z" fill="#586F7E"/>
<path d="M8.08519 11.7507V4.02808H9.53161V11.7507H8.08519ZM7.76376 1.10323C7.76376 0.782525 7.86266 0.525959 8.07282 0.320707C8.27063 0.102626 8.51788 0 8.80222 0C9.09892 0 9.35853 0.102626 9.55634 0.320707C9.75414 0.525959 9.85304 0.782525 9.85304 1.10323C9.85304 1.39828 9.75414 1.65485 9.55634 1.8601C9.35853 2.06535 9.09892 2.16798 8.80222 2.16798C8.51788 2.16798 8.27063 2.06535 8.07282 1.8601C7.86266 1.65485 7.76376 1.39828 7.76376 1.10323Z" fill="#586F7E"/>
<path d="M11.7693 11.8405C11.8188 12.3793 12.0289 12.8411 12.3875 13.2003C12.7583 13.5595 13.2281 13.7391 13.7968 13.7391C14.5756 13.7391 15.1567 13.521 15.5152 13.1105C15.8861 12.6871 16.0715 12.0586 16.0715 11.2247V10.1215C15.8985 10.4679 15.6141 10.7757 15.2185 11.0195C14.8229 11.2632 14.3531 11.3915 13.7968 11.3915C13.3023 11.3915 12.8449 11.2889 12.4245 11.1093C12.0042 10.9168 11.6457 10.6603 11.3366 10.3396C11.0276 10.006 10.7927 9.60836 10.6196 9.14654C10.4589 8.69755 10.3724 8.18442 10.3724 7.64563C10.3724 7.11967 10.4465 6.61937 10.6196 6.17038C10.7803 5.70856 11.0152 5.32371 11.3119 4.97735C11.6086 4.64381 11.9671 4.37442 12.3875 4.18199C12.8078 3.97674 13.2776 3.87411 13.7968 3.87411C14.3778 3.87411 14.8476 3.98957 15.2309 4.19482C15.6141 4.4129 15.8985 4.72078 16.0839 5.10563V4.02805H17.5303V11.1734C17.5303 11.6737 17.4685 12.1484 17.3449 12.623C17.2213 13.0848 17.0111 13.4953 16.7144 13.8545C16.4177 14.2137 16.0344 14.5088 15.5647 14.7268C15.0825 14.9449 14.5015 15.0475 13.7968 15.0475C13.327 15.0475 12.8943 14.9834 12.4987 14.8423C12.1031 14.6884 11.7446 14.4959 11.4479 14.2394C11.1388 13.97 10.8916 13.6749 10.7061 13.3286C10.5083 12.9822 10.3971 12.5973 10.3476 12.174L11.7693 11.8405ZM14.007 10.1215C14.6375 10.1215 15.1567 9.89058 15.5399 9.44159C15.9355 8.9926 16.1333 8.38967 16.1333 7.64563C16.1333 6.88876 15.9355 6.28583 15.5399 5.83684C15.1567 5.38785 14.6375 5.16977 14.007 5.16977C13.3641 5.16977 12.8325 5.38785 12.4493 5.83684C12.0537 6.28583 11.8559 6.88876 11.8559 7.64563C11.8559 8.4025 12.0537 9.00543 12.4369 9.45442C12.8202 9.89058 13.3517 10.1215 14.007 10.1215Z" fill="#586F7E"/>
<path d="M19.6072 11.8405C19.6567 12.3793 19.8668 12.8411 20.2377 13.2003C20.5962 13.5595 21.066 13.7391 21.6347 13.7391C22.4259 13.7391 22.9946 13.521 23.3655 13.1105C23.724 12.6871 23.9094 12.0586 23.9094 11.2247V10.1215C23.7363 10.4679 23.452 10.7757 23.0564 11.0195C22.6732 11.2632 22.191 11.3915 21.6347 11.3915C21.1402 11.3915 20.6828 11.2889 20.2624 11.1093C19.8421 10.9168 19.4836 10.6603 19.1745 10.3396C18.8778 10.006 18.6429 9.60836 18.4699 9.14654C18.2968 8.69755 18.2102 8.18442 18.2102 7.64563C18.2102 7.11967 18.2968 6.61937 18.4575 6.17038C18.6182 5.70856 18.8531 5.32371 19.1498 4.97735C19.4589 4.64381 19.8174 4.37442 20.2377 4.18199C20.6457 3.97674 21.1155 3.87411 21.6347 3.87411C22.2157 3.87411 22.6979 3.98957 23.0811 4.19482C23.4644 4.4129 23.7363 4.72078 23.9341 5.10563V4.02805H25.3682V11.1734C25.3682 11.6737 25.3064 12.1484 25.1828 12.623C25.0591 13.0848 24.849 13.4953 24.5523 13.8545C24.2556 14.2137 23.8723 14.5088 23.4025 14.7268C22.9204 14.9449 22.3394 15.0475 21.6347 15.0475C21.1649 15.0475 20.7446 14.9834 20.3366 14.8423C19.941 14.6884 19.5949 14.4959 19.2858 14.2394C18.9767 13.97 18.7295 13.6749 18.544 13.3286C18.3586 12.9822 18.235 12.5973 18.1979 12.174L19.6072 11.8405ZM21.8572 10.1215C22.4877 10.1215 22.9946 9.89058 23.3902 9.44159C23.7734 8.9926 23.9712 8.38967 23.9712 7.64563C23.9712 6.88876 23.7734 6.28583 23.3902 5.83684C22.9946 5.38785 22.4877 5.16977 21.8572 5.16977C21.202 5.16977 20.6828 5.38785 20.2872 5.83684C19.8916 6.28583 19.6938 6.88876 19.6938 7.64563C19.6938 8.4025 19.8916 9.00543 20.2748 9.45442C20.6704 9.89058 21.1896 10.1215 21.8572 10.1215Z" fill="#586F7E"/>
<path d="M26.5798 11.7497V0.114441H28.0386V11.7497H26.5798Z" fill="#586F7E"/>
</svg>
