<svg width="48" height="48" viewBox="0 0 48 48" fill="none" xmlns="http://www.w3.org/2000/svg">
<circle cx="24" cy="24" r="24" fill="#2F6DEB"/>
<path fill-rule="evenodd" clip-rule="evenodd" d="M13.2408 26.4786L33.832 23.745L33.8786 21.9682V21.9806C33.8553 21.993 33.832 22.0054 33.8086 22.0054L33.7969 22.0179C33.7736 22.0303 33.7502 22.0303 33.7152 22.0427C33.6919 22.0551 33.6685 22.0676 33.6452 22.08H33.6335C33.6102 22.0924 33.5868 22.1048 33.5635 22.1048L33.5518 22.1173C33.5168 22.1173 33.4934 22.1297 33.4701 22.1421C33.4467 22.1545 33.4117 22.1545 33.3884 22.167H33.3767C33.3534 22.1794 33.33 22.1794 33.3067 22.1918H33.295C33.2717 22.2042 33.2366 22.2042 33.2133 22.2167H33.2016C33.1783 22.2167 33.1549 22.2291 33.1199 22.2291C33.0966 22.2415 33.0732 22.2415 33.0382 22.2539H33.0265C33.0032 22.2539 32.9798 22.2664 32.9565 22.2664H32.9448C32.9098 22.2788 32.8864 22.2788 32.8631 22.2788H32.8514C32.8281 22.2912 32.7931 22.2912 32.7697 22.2912C32.7347 22.2912 32.7113 22.3036 32.6763 22.3036H32.6647C32.6413 22.3036 32.618 22.3036 32.5829 22.3036C32.5479 22.3036 32.5246 22.3161 32.5012 22.3161H32.4896C32.4545 22.3161 32.4312 22.3161 32.3962 22.3161C30.4118 22.3161 28.8009 20.6014 28.8009 18.4766C28.8009 18.4517 28.8009 18.4145 28.8009 18.3896V18.3772C28.8009 18.3523 28.8009 18.3151 28.8009 18.2902V18.2654C28.8009 18.2405 28.8009 18.2157 28.8009 18.1908V18.1784C28.8126 18.1411 28.8126 18.1163 28.8126 18.0914V18.079C28.8126 18.0541 28.8242 18.0293 28.8242 17.992V17.9796C28.8242 17.9547 28.8359 17.9299 28.8359 17.905V17.8926C28.8476 17.8553 28.8476 17.8305 28.8476 17.8056V17.7932C28.8593 17.7683 28.8593 17.7435 28.8709 17.7062C28.8709 17.6689 28.8826 17.6441 28.8826 17.6192L28.8943 17.6068C28.8943 17.582 28.9059 17.5571 28.9059 17.5323L28.9176 17.5074L28.9293 17.4329V17.4204C28.941 17.3956 28.9526 17.3707 28.9526 17.3459L28.9643 17.3334C28.9643 17.3086 28.976 17.2837 28.9877 17.2589V17.234L29.011 17.1719L29.0227 17.1471C29.0227 17.1346 29.0343 17.1098 29.046 17.0849V17.0601L29.0694 16.998L29.081 16.9731L29.1044 16.911L29.1161 16.8861L29.1394 16.8364L29.1628 16.7992L29.1744 16.7495L29.1978 16.7122L29.2211 16.6749L29.2445 16.6252L29.2678 16.5879L29.2795 16.5506L29.3028 16.5134L29.3378 16.4637L29.3495 16.4388L29.3729 16.3891L29.3962 16.3643L29.4196 16.3146H29.4312L29.4429 16.2773L29.4662 16.24L29.4896 16.2152L29.5013 16.2027L29.5363 16.153L29.548 16.1406L29.583 16.0909V16.0785L29.6063 16.0536L29.6297 16.0163L17.5948 15.2211L17.4547 15.2087C16.5092 15.1466 15.5754 15.072 14.6298 15.0099C13.731 14.9478 12.9139 15.1093 13.0073 17.5571L13.2408 26.4786Z" fill="white"/>
<path fill-rule="evenodd" clip-rule="evenodd" d="M15.7621 33.5984C15.2018 33.7102 13.801 33.1138 13.731 32.008L13.4392 27.6963L33.8203 24.6396C33.8203 25.9567 33.7502 28.0566 32.6063 28.4046L15.7621 33.5984Z" fill="white"/>
<path d="M32.3962 21.3345C33.879 21.3345 35.081 20.055 35.081 18.4766C35.081 16.8983 33.879 15.6187 32.3962 15.6187C30.9134 15.6187 29.7114 16.8983 29.7114 18.4766C29.7114 20.055 30.9134 21.3345 32.3962 21.3345Z" fill="white"/>
</svg>
